<?xml version="1.0" standalone="no"?>
<!DOCTYPE svg PUBLIC "-//W3C//DTD SVG 20010904//EN"
 "http://www.w3.org/TR/2001/REC-SVG-20010904/DTD/svg10.dtd">
<svg version="1.0" xmlns="http://www.w3.org/2000/svg"
 width="389.000000pt" height="389.000000pt" viewBox="0 0 389.000000 389.000000"
 preserveAspectRatio="xMidYMid meet">
<metadata>
Created by potrace 1.14, written by Peter Selinger 2001-2017
</metadata>
<g transform="translate(0.000000,389.000000) scale(0.100000,-0.100000)"
fill="#000000" stroke="none">
<path d="M2690 3715 c0 -13 51 -85 60 -85 6 0 10 -9 10 -21 0 -13 8 -23 20
-26 12 -3 30 -24 40 -46 25 -51 25 -50 -2 -36 -31 17 -67 21 -122 15 -35 -3
-43 -18 -21 -36 8 -7 15 -25 15 -41 0 -28 2 -29 44 -29 46 0 72 -19 63 -45 -8
-19 8 -28 50 -30 18 0 43 -10 55 -21 16 -14 37 -20 70 -19 28 0 47 -4 45 -10
-2 -5 -21 -10 -43 -10 -21 0 -58 -6 -82 -13 l-43 -13 26 -30 c14 -17 25 -34
25 -38 0 -3 12 -8 26 -9 36 -3 44 -10 44 -37 0 -13 4 -26 9 -30 6 -3 56 -7
112 -10 99 -4 152 -15 72 -15 -25 0 -46 -6 -54 -16 -7 -9 -25 -21 -39 -26
l-25 -10 22 -9 c12 -4 25 -20 29 -34 5 -20 11 -24 26 -19 14 4 28 -2 47 -20
18 -17 34 -24 50 -21 31 6 62 -11 55 -30 -8 -19 23 -32 38 -17 8 8 7 13 -5 18
-11 4 -17 17 -17 36 0 24 -3 28 -18 24 -22 -7 -90 39 -69 47 7 3 19 -4 25 -14
17 -27 32 -23 32 9 0 16 -8 32 -20 40 -11 7 -20 23 -20 36 0 28 -26 52 -51 48
-10 -2 -31 4 -48 12 -16 9 -39 16 -51 16 -12 0 -19 4 -15 10 3 5 -6 15 -21 23
-22 11 -24 15 -10 20 9 4 16 3 16 -2 0 -9 46 -42 64 -45 6 -2 23 -9 39 -16 30
-15 32 -14 41 17 8 27 -11 39 -74 48 -55 7 -80 33 -74 75 5 26 2 30 -23 36
-49 10 -53 13 -62 37 -5 14 -21 27 -35 31 -22 5 -31 21 -28 48 1 3 -5 12 -13
18 -27 22 -18 41 18 39 17 -1 41 1 53 5 14 4 26 1 34 -9 7 -8 21 -15 31 -15
17 0 18 5 13 43 -9 57 -27 84 -64 92 -16 4 -30 10 -30 15 0 4 -13 22 -29 39
-23 25 -35 30 -54 25 -18 -4 -31 0 -46 15 -15 15 -34 21 -66 21 -25 0 -45 -2
-45 -5z m186 -109 c46 -76 46 -75 25 -69 -11 3 -18 10 -16 16 5 14 -13 39 -40
56 -18 11 -18 11 5 5 14 -3 25 -7 26 -8z m-96 -146 c8 -5 11 -12 8 -16 -4 -3
-14 1 -23 10 -18 17 -9 21 15 6z m66 -31 c19 -22 19 -22 -1 -11 -11 6 -27 16
-35 22 -13 8 -13 10 1 10 9 0 24 -10 35 -21z m334 -423 c0 -2 -9 -2 -20 1 -11
3 -20 9 -20 15 0 5 9 4 20 -2 11 -6 20 -12 20 -14z"/>
<path d="M1034 3669 c-13 -14 -26 -19 -45 -15 -21 4 -31 -1 -48 -25 -15 -21
-30 -29 -51 -29 -27 0 -33 -6 -54 -55 -18 -40 -31 -56 -50 -61 -20 -5 -25 -11
-20 -28 3 -14 -3 -32 -17 -50 -16 -20 -19 -30 -10 -39 17 -17 13 -42 -13 -66
-16 -15 -22 -29 -18 -46 4 -25 16 -32 26 -16 3 4 17 6 31 3 16 -3 33 2 44 12
12 11 27 15 43 11 22 -6 26 -3 31 25 5 23 15 34 42 46 28 11 35 19 30 33 -4
14 3 25 25 41 16 12 30 30 30 40 0 10 5 22 10 25 18 11 2 22 -38 23 -32 1 -41
-3 -52 -23 -14 -27 -30 -31 -60 -15 -27 15 -42 5 -69 -45 -13 -25 -27 -45 -32
-45 -9 0 48 95 66 110 9 7 21 7 39 -1 23 -11 28 -9 47 15 19 24 27 27 56 21
47 -8 106 34 97 69 -4 17 1 27 20 40 16 10 26 26 26 41 0 22 -5 25 -33 25 -22
0 -41 -8 -53 -21z m-23 -72 c-6 -8 -8 -17 -4 -20 3 -4 -4 -7 -16 -7 -13 0 -42
-16 -66 -36 -36 -29 -42 -32 -38 -15 3 12 9 18 14 15 5 -3 25 10 43 28 19 19
38 32 44 30 6 -2 13 2 17 7 3 6 9 11 12 11 3 0 0 -6 -6 -13z m-131 -202 c-7
-8 -9 -15 -4 -15 5 0 -6 -8 -25 -17 -19 -9 -36 -24 -38 -33 -2 -8 -18 -23 -36
-33 -30 -18 -30 -16 11 25 23 24 42 49 42 56 0 6 6 9 13 6 8 -3 20 2 27 11 7
8 15 15 17 15 3 0 0 -7 -7 -15z"/>
<path d="M1834 3651 c-40 -17 -93 -80 -105 -123 -8 -33 -8 -56 1 -97 11 -48 9
-68 -11 -169 -22 -109 -25 -116 -52 -126 -27 -11 -28 -13 -22 -64 l6 -53 -38
-15 c-40 -17 -42 -16 -89 50 -13 19 -14 19 -64 -4 -28 -13 -53 -27 -55 -31 -3
-3 3 -28 12 -54 l16 -48 -28 -24 -27 -24 -28 38 c-27 37 -42 78 -45 118 -1 21
-118 185 -141 198 -8 5 -24 5 -37 1 -35 -11 -106 -63 -124 -90 -15 -23 -15
-28 -2 -52 26 -47 14 -68 -90 -147 -102 -76 -119 -98 -100 -121 19 -23 38 -17
133 45 50 32 100 63 111 68 23 12 53 9 68 -6 6 -6 17 -11 25 -11 21 0 78 -47
105 -89 23 -35 24 -40 11 -60 l-15 -21 -50 26 c-57 28 -53 30 -100 -44 l-21
-33 26 -28 c14 -15 26 -32 26 -37 0 -7 -40 -11 -107 -12 -143 0 -145 -1 -141
-11 2 -5 40 -48 86 -95 45 -48 82 -91 82 -96 0 -5 -5 -21 -10 -35 -9 -24 -14
-26 -62 -24 -57 3 -57 4 -71 -83 -5 -36 -4 -37 31 -49 67 -21 64 -31 -21 -72
-68 -32 -139 -94 -161 -141 -19 -40 -13 -80 20 -146 23 -47 50 -132 58 -185
21 -127 30 -166 43 -177 22 -18 98 -18 147 -2 42 15 67 33 101 73 l20 24 -25
-13 c-14 -7 -38 -22 -53 -32 -39 -27 -137 -36 -159 -14 -24 24 -11 52 42 91
55 40 66 43 75 15 8 -24 9 -24 68 -6 47 14 47 14 68 -15 l20 -29 -20 -28 c-11
-16 -27 -35 -35 -42 -14 -11 -11 -18 25 -61 l40 -48 49 27 c47 26 48 27 69 8
24 -22 26 -43 8 -113 -10 -39 -31 -71 -90 -140 -42 -50 -77 -97 -77 -105 0
-44 186 -172 215 -148 6 5 44 61 84 124 l72 115 52 -19 c29 -11 55 -20 58 -20
3 0 16 22 28 49 l23 48 39 -10 c36 -9 39 -12 40 -46 1 -20 1 -40 0 -45 -2 -11
20 -37 28 -32 3 2 27 1 53 -3 l46 -8 14 51 c11 39 20 52 39 56 42 11 55 1 68
-51 l13 -50 57 7 c31 3 59 8 64 11 4 2 7 28 7 57 0 47 3 54 23 60 43 11 56 6
78 -34 13 -22 28 -40 36 -40 7 0 33 10 58 22 45 22 46 24 40 58 l-6 35 17 -24
c9 -13 42 -81 71 -150 30 -69 60 -132 67 -139 35 -36 131 -6 198 63 43 43 75
115 61 138 -4 9 -55 50 -113 93 -58 42 -107 78 -108 80 -7 5 -23 87 -18 91 3
3 24 -8 47 -25 l43 -29 43 45 42 46 -30 40 c-34 47 -35 53 -10 85 18 24 19 24
60 8 58 -24 64 -22 91 27 27 51 33 50 101 -11 56 -51 50 -103 -13 -103 -33 0
-126 35 -151 57 -27 25 -33 6 -7 -21 70 -75 222 -86 248 -18 6 15 14 54 18 87
4 33 22 120 40 194 19 74 34 149 34 168 0 49 -54 103 -160 158 -50 25 -90 50
-90 55 0 5 17 14 38 21 71 23 71 22 58 86 l-12 58 -44 1 c-25 1 -51 2 -57 3
-31 3 -5 43 87 141 55 58 100 107 100 110 0 3 -63 5 -140 5 l-139 0 30 31 30
31 -32 47 c-18 25 -37 46 -41 46 -5 0 -27 -9 -50 -21 -40 -21 -41 -21 -60 -1
-20 19 -20 20 23 84 l43 65 114 -76 114 -76 19 24 c24 30 24 41 -6 158 -21 83
-29 102 -57 125 -18 15 -37 28 -42 28 -4 0 -6 6 -3 13 3 6 8 19 11 28 5 11
-10 27 -53 57 l-60 42 -20 -21 -20 -21 -95 66 c-53 36 -100 66 -105 66 -14 0
-134 -182 -125 -189 5 -3 51 -34 102 -69 51 -34 92 -66 92 -71 0 -13 -86 -81
-102 -81 -7 0 -24 9 -37 19 -23 18 -23 19 -8 70 l15 52 -56 25 c-30 13 -58 21
-62 17 -3 -5 -18 -25 -33 -45 -27 -37 -29 -37 -60 -25 -30 13 -32 16 -32 67 0
49 -2 55 -24 60 -22 5 -28 18 -53 120 -22 93 -27 128 -22 186 5 60 3 77 -15
112 -33 64 -82 96 -155 99 -33 2 -71 -1 -82 -6z m147 -45 c59 -25 87 -144 49
-204 -58 -92 -201 -86 -251 10 -23 44 -24 77 -5 121 34 80 119 110 207 73z
m85 -307 c8 -30 16 -67 19 -84 3 -16 14 -64 25 -105 10 -41 40 -165 65 -275
26 -110 53 -224 60 -254 13 -52 13 -55 -12 -93 -28 -41 -38 -38 -48 14 -10 49
-57 175 -73 194 -10 12 -32 29 -48 37 -29 15 -33 25 -93 259 -88 338 -82 307
-60 303 29 -6 87 14 116 40 16 13 29 22 31 20 2 -2 10 -27 18 -56z m-193 -107
l28 -107 -36 -140 c-48 -190 -52 -201 -80 -219 -14 -9 -35 -37 -49 -63 -23
-46 -25 -47 -70 -48 -25 0 -46 2 -46 5 0 3 34 167 76 366 l77 361 36 -24 c34
-22 39 -31 64 -131z m812 -50 c94 -63 177 -122 186 -131 19 -18 64 -194 55
-210 -7 -10 -516 322 -516 336 0 16 86 130 95 125 6 -3 87 -57 180 -120z
m-1471 -33 l59 -80 -24 -25 c-13 -14 -40 -34 -61 -45 l-36 -18 -57 76 c-32 42
-58 83 -59 91 -1 18 79 82 102 82 9 -1 43 -37 76 -81z m1560 40 c20 -12 33
-25 30 -30 -6 -10 -58 17 -76 39 -16 19 6 15 46 -9z m-1091 -54 c-3 -9 -8 -14
-10 -11 -3 3 -2 9 2 15 9 16 15 13 8 -4z m-163 -86 c0 -5 -19 -9 -42 -8 l-43
1 30 13 c30 13 55 10 55 -6z m865 1 c-3 -5 -26 -10 -51 -10 -28 0 -43 4 -39
10 3 6 26 10 51 10 28 0 43 -4 39 -10z m-1318 -26 c1 -5 -46 -40 -105 -79
-122 -80 -126 -82 -120 -65 5 16 200 160 212 156 6 -1 11 -6 13 -12z m223 -18
c0 -15 -58 -56 -79 -56 -22 0 -10 20 26 45 43 29 53 31 53 11z m367 0 c-2 -6
-21 -12 -43 -13 l-39 -3 30 13 c36 16 57 17 52 3z m267 -14 c-22 -5 -31 7 -14
18 9 6 17 5 22 -3 4 -7 1 -13 -8 -15z m379 19 c37 -1 67 -5 67 -11 0 -6 -38
-10 -95 -10 -79 0 -95 3 -95 15 0 12 7 14 28 11 15 -2 57 -5 95 -5z m-743 -11
c11 -7 -3 -10 -47 -10 -36 0 -63 4 -63 10 0 13 90 13 110 0z m1012 -183 c-53
-78 -140 -205 -193 -282 l-96 -140 -49 3 c-26 2 -50 4 -51 6 -3 2 37 62 242
361 45 66 101 148 124 182 l42 62 39 -25 39 -26 -97 -141z m-925 138 c-6 -16
-177 -19 -177 -3 0 10 23 13 90 13 56 0 89 -4 87 -10z m303 -4 c0 -4 -13 -8
-30 -9 -32 -2 -42 14 -12 20 20 5 42 -1 42 -11z m422 1 c7 -7 -16 -10 -82 -9
-53 1 -95 6 -97 12 -4 14 165 11 179 -3z m-963 -142 c61 -82 111 -151 111
-153 0 -7 -72 1 -80 9 -4 5 -49 65 -100 132 -88 119 -91 125 -74 143 9 10 21
19 25 19 4 0 57 -67 118 -150z m227 99 c6 -11 8 -10 -119 -12 -80 -2 -94 0
-80 11 20 14 190 15 199 1z m321 -4 c2 -6 -11 -10 -29 -9 -47 3 -48 3 -48 15
0 13 72 8 77 -6z m481 2 c8 -9 -15 -12 -106 -10 -141 2 -132 1 -132 12 0 15
226 13 238 -2z m-815 -48 c-14 -14 -192 -14 -206 0 -8 8 22 11 103 11 83 0
111 -3 103 -11z m350 -2 c4 -11 -8 -14 -53 -13 -41 1 -56 4 -53 14 7 17 99 16
106 -1z m477 3 c0 -9 -21 -11 -125 -11 -97 0 -115 1 -115 11 0 6 47 10 120 10
73 0 120 -4 120 -10z m-837 -39 c5 -1 5 -5 2 -11 -8 -13 -162 -13 -170 -1 -3
5 2 11 12 13 13 2 108 2 156 -1z m367 -16 c5 -3 10 -12 10 -20 0 -8 20 -28 45
-45 41 -28 65 -56 65 -77 0 -4 -77 -8 -170 -8 -94 0 -170 4 -170 8 0 16 20 45
55 80 19 19 35 42 35 50 0 9 10 17 23 19 30 5 94 1 107 -7z m435 5 c-3 -5 -46
-10 -95 -10 -49 0 -92 5 -95 10 -4 6 30 10 95 10 65 0 99 -4 95 -10z m-810
-39 c5 0 5 -5 -2 -12 -13 -13 -115 -8 -120 6 -3 9 75 12 122 6z m-380 -11 c14
-6 4 -9 -38 -9 -36 -1 -56 3 -52 9 7 12 62 12 90 0z m100 0 c4 -6 -7 -10 -24
-10 -17 0 -31 5 -31 10 0 6 11 10 24 10 14 0 28 -4 31 -10z m1055 0 c0 -6 -30
-10 -70 -10 -40 0 -70 4 -70 10 0 6 30 10 70 10 40 0 70 -4 70 -10z m225 0 c3
-5 -3 -10 -15 -10 -12 0 -18 5 -15 10 3 6 10 10 15 10 5 0 12 -4 15 -10z m140
0 c4 -6 -9 -10 -32 -10 -28 0 -34 3 -23 10 20 13 47 13 55 0z m-1383 -48 c9
-9 -11 -12 -94 -12 -103 0 -142 5 -134 19 8 12 215 6 228 -7z m228 3 c6 -12
-35 -19 -56 -11 -9 3 -13 9 -10 14 7 11 60 9 66 -3z m757 0 c-5 -16 -97 -19
-97 -3 0 9 15 13 50 13 29 0 49 -4 47 -10z m418 6 c6 -1 3 -6 -5 -11 -18 -12
-220 -12 -220 0 0 5 10 10 23 12 19 3 175 2 202 -1z m-1368 -56 c2 -6 -40 -10
-112 -10 -109 0 -124 3 -108 19 11 10 216 2 220 -9z m183 5 c12 -8 11 -10 -7
-10 -13 0 -23 5 -23 10 0 13 11 13 30 0z m730 -6 c-13 -14 -42 -12 -48 4 -2 6
9 10 27 10 24 -1 28 -4 21 -14z m402 4 c-12 -12 -202 -19 -202 -7 0 15 21 19
114 19 77 0 97 -3 88 -12z m-579 -102 c9 -29 17 -55 17 -59 0 -3 -205 -5 -455
-4 -250 1 -455 -2 -455 -6 0 -9 83 -101 115 -128 19 -16 18 -17 -25 -28 -25
-7 -55 -16 -67 -21 -20 -8 -34 3 -126 98 -131 134 -187 195 -187 202 0 3 262
4 583 2 l583 -2 17 -54z m756 -23 c-42 -43 -111 -115 -155 -161 l-79 -83 -63
22 -63 21 57 62 c32 33 64 67 73 73 8 7 12 16 8 20 -4 3 -63 6 -132 5 -78 -1
-125 2 -125 8 0 6 15 33 33 60 l32 50 245 0 245 0 -76 -77z m-1350 -110 c-5
-21 -9 -41 -9 -44 0 -6 -122 -32 -125 -26 -1 1 -23 26 -50 55 l-48 52 121 0
120 0 -9 -37z m133 31 c3 -3 3 -17 -1 -32 -6 -22 -16 -28 -50 -35 -24 -5 -45
-6 -48 -4 -2 3 -1 21 2 41 7 35 9 36 49 36 24 0 45 -3 48 -6z m498 -2 c0 -4
-7 -17 -15 -29 -14 -21 -21 -21 -224 -21 -115 0 -214 -3 -221 -7 -10 -6 -12
-3 -7 9 4 10 7 26 7 37 0 18 10 19 230 19 127 0 230 -3 230 -8z m375 -52 c-41
-41 -65 -58 -76 -55 -18 6 -37 10 -99 21 -52 10 -53 12 -23 54 l28 40 115 0
114 0 -59 -60z m-1455 0 c0 -5 -2 -10 -4 -10 -3 0 -8 5 -11 10 -3 6 -1 10 4
10 6 0 11 -4 11 -10z m1778 -40 c29 0 51 -3 49 -7 -3 -5 -37 -6 -77 -5 -61 3
-69 6 -59 18 8 10 15 12 23 4 5 -5 34 -10 64 -10z m-1731 -5 c2 -6 -15 -9 -42
-7 -25 2 -42 8 -39 14 8 12 76 6 81 -7z m1103 -4 c41 -6 112 -21 158 -32 45
-11 94 -23 108 -25 14 -3 74 -21 132 -40 197 -66 402 -177 422 -229 6 -15 3
-47 -6 -91 -44 -202 -51 -240 -53 -273 -1 -11 -7 -9 -23 6 -33 30 -151 95
-248 138 -175 77 -405 137 -620 162 -85 10 -351 10 -415 0 -27 -4 -67 -10 -88
-13 -64 -8 -223 -51 -315 -85 -113 -41 -311 -142 -361 -185 -21 -19 -43 -34
-47 -34 -4 0 -5 2 -2 6 9 8 -27 151 -63 249 -32 88 -32 91 -16 125 21 43 99
102 192 145 72 34 270 104 315 111 14 3 39 9 55 14 43 14 168 39 228 46 29 4
75 10 102 14 75 10 459 4 545 -9z m-1056 -41 c7 -7 -32 -10 -117 -10 -71 0
-127 4 -127 9 0 14 23 16 134 14 55 -2 104 -7 110 -13z m1745 4 c12 -12 -44
-17 -163 -15 -48 1 -55 15 -11 23 24 4 168 -2 174 -8z m-1814 -55 c-26 -10
-83 -11 -115 -2 -22 7 -21 8 15 13 22 3 58 3 80 1 32 -3 36 -5 20 -12z m1740
1 c-11 -5 -38 -9 -60 -9 -22 0 -49 4 -60 9 -13 6 7 9 60 9 53 0 73 -3 60 -9z
m-1004 -422 l98 -103 33 32 33 31 32 -42 31 -43 -65 -64 -65 -64 -158 165
c-87 91 -157 166 -155 168 2 2 25 6 52 9 26 3 50 7 52 9 8 8 15 3 112 -98z
m-17 90 c-3 -4 -9 -8 -15 -8 -5 0 -9 4 -9 8 0 5 7 9 15 9 8 0 12 -4 9 -9z m84
0 c18 -18 15 -43 -8 -63 -19 -17 -21 -17 -40 0 -24 22 -25 33 -3 57 19 21 34
23 51 6z m325 -237 l189 -243 48 -170 c27 -93 50 -171 53 -174 2 -2 18 22 35
54 28 52 30 62 21 101 -5 24 -8 47 -7 51 2 4 34 -15 71 -43 l68 -51 -43 -22
c-47 -24 -80 -52 -119 -102 l-25 -33 -38 92 c-46 114 -70 151 -238 376 -73 98
-173 231 -220 295 l-87 117 52 -2 52 -2 188 -244z m17 211 c4 -4 -12 -24 -35
-44 l-41 -37 -32 41 c-17 22 -29 45 -25 51 6 11 123 2 133 -11z m-722 -39
c-28 -107 -190 -668 -193 -671 -2 -2 -8 5 -13 15 -10 17 -7 35 32 218 3 11 23
110 46 220 22 110 45 210 50 222 8 20 27 28 72 32 14 1 15 -4 6 -36z m865 11
c15 -3 27 -7 27 -9 0 -2 9 -47 21 -101 11 -55 22 -109 25 -120 2 -12 13 -66
25 -120 11 -55 22 -108 24 -119 3 -11 12 -55 21 -97 21 -98 6 -177 -16 -86 -7
28 -169 596 -186 651 -5 15 -2 18 13 13 10 -3 30 -8 46 -12z m-778 -4 c4 -6
-7 -10 -25 -10 -18 0 -29 4 -25 10 3 6 15 10 25 10 10 0 22 -4 25 -10z m685 0
c0 -5 -7 -10 -16 -10 -8 0 -12 5 -9 10 3 6 10 10 16 10 5 0 9 -4 9 -10z m-335
-60 c-36 -40 -68 -10 -38 36 l16 25 20 -20 c20 -20 20 -21 2 -41z m-562 13
c-4 -9 -28 -13 -81 -13 -80 0 -88 5 -29 17 62 13 116 11 110 -4z m262 -4 c5
-5 -14 -9 -53 -9 -48 0 -60 3 -56 14 6 15 92 12 109 -5z m655 -4 c0 -3 -23 -5
-52 -5 -52 0 -58 14 -8 22 23 4 60 -7 60 -17z m243 6 c9 -9 -1 -11 -42 -9 -30
2 -56 8 -58 15 -5 15 84 10 100 -6z m-1170 -46 c1 -6 -46 -10 -125 -11 -71 -1
-128 2 -128 7 0 13 31 16 143 15 62 0 108 -5 110 -11z m294 1 c-5 -16 -147
-16 -147 0 0 9 22 12 75 11 49 0 74 -4 72 -11z m640 -2 c2 -6 -17 -10 -53 -10
-38 1 -59 5 -62 14 -3 10 10 12 54 10 31 -2 59 -8 61 -14z m374 0 c19 -10 2
-12 -104 -11 -93 1 -127 5 -127 14 0 17 199 14 231 -3z m-947 -45 l26 -30 -33
-52 c-19 -29 -115 -181 -216 -339 -100 -158 -186 -290 -190 -293 -25 -15 -162
78 -161 110 1 19 100 121 100 103 0 -20 51 -118 61 -118 4 0 26 70 50 156 l44
156 124 147 c68 80 131 156 140 168 21 29 24 29 55 -8z m-370 -3 c-3 -8 -58
-11 -167 -10 -89 1 -164 2 -167 4 -3 1 4 5 15 9 32 13 324 10 319 -3z m260 1
c-3 -8 -24 -12 -62 -11 -71 3 -70 2 -53 13 23 15 121 13 115 -2z m693 0 c-2
-7 -19 -11 -41 -10 -59 2 -62 18 -5 21 36 1 49 -2 46 -11z m446 6 c64 -11 16
-18 -135 -18 -106 0 -163 4 -165 11 -4 11 246 17 300 7z m-1416 -55 c-2 -9
-27 -13 -83 -11 -112 2 -114 2 -114 13 0 6 40 10 101 10 76 0 100 -3 96 -12z
m243 2 c0 -11 -4 -11 -62 -14 -25 -1 -38 3 -38 11 0 9 16 13 50 13 28 0 50 -4
50 -10z m743 -4 c-4 -16 -51 -15 -64 0 -11 13 -7 15 27 12 21 -2 38 -7 37 -12z
m457 5 c0 -13 -33 -19 -72 -14 -18 3 -37 4 -43 4 -42 -4 -182 -7 -192 -3 -7 2
-13 8 -13 13 0 5 72 9 160 9 88 0 160 -4 160 -9z m-677 -54 l38 -52 -28 -23
c-95 -78 -206 -95 -337 -51 -90 31 -90 31 -44 105 22 35 42 64 43 64 2 0 32
-30 69 -67 l65 -68 73 73 c40 39 75 72 78 72 3 0 22 -24 43 -53z m-771 1 c-17
-17 -140 -18 -154 -1 -8 11 6 13 78 13 69 0 85 -3 76 -12z m203 2 c-3 -5 -22
-10 -41 -10 -21 0 -33 4 -29 10 3 6 22 10 41 10 21 0 33 -4 29 -10z m805 0 c0
-5 -9 -10 -19 -10 -11 0 -23 5 -26 10 -4 6 5 10 19 10 14 0 26 -4 26 -10z
m275 0 c-3 -5 -37 -10 -76 -10 -39 0 -69 4 -69 10 0 6 32 10 76 10 47 0 73 -4
69 -10z m-260 -58 c-8 -8 -25 10 -19 20 4 6 9 5 15 -3 4 -7 6 -15 4 -17z
m-1030 8 c-3 -5 -44 -10 -91 -10 -49 0 -84 4 -84 10 0 6 37 10 91 10 57 0 88
-4 84 -10z m170 0 c-3 -5 -15 -10 -26 -10 -10 0 -19 5 -19 10 0 6 12 10 26 10
14 0 23 -4 19 -10z m1095 0 c0 -5 -25 -10 -55 -10 -30 0 -55 5 -55 10 0 6 25
10 55 10 30 0 55 -4 55 -10z m-1274 -48 c-7 -12 -194 -14 -201 -2 -4 6 32 10
100 10 58 0 104 -4 101 -8z m144 4 c0 -3 -4 -8 -10 -11 -5 -3 -10 -1 -10 4 0
6 5 11 10 11 6 0 10 -2 10 -4z m715 -6 c3 -5 -3 -10 -15 -10 -12 0 -18 5 -15
10 3 6 10 10 15 10 5 0 12 -4 15 -10z m450 0 c4 -6 -20 -10 -64 -10 -41 0 -71
4 -71 10 0 6 28 10 64 10 36 0 68 -4 71 -10z m-1455 -40 c0 -5 -5 -10 -11 -10
-5 0 -7 5 -4 10 3 6 8 10 11 10 2 0 4 -4 4 -10z m560 -16 c0 -2 -19 -4 -41 -4
-35 0 -40 2 -30 14 10 11 19 12 42 4 16 -5 29 -12 29 -14z m473 17 c4 0 7 -5
7 -11 0 -6 -32 -10 -77 -10 -67 1 -75 2 -56 13 18 10 89 15 126 8z m434 -6
c-5 -16 -70 -17 -90 -3 -16 12 -11 13 37 13 33 0 55 -4 53 -10z m-396 -52 c8
-8 -77 -11 -307 -11 -236 1 -314 4 -302 12 21 15 594 14 609 -1z m40 -50 c9
-9 -67 -12 -340 -12 -317 1 -363 4 -346 21 3 3 156 4 340 4 245 -1 337 -4 346
-13z m19 -45 c0 -10 -79 -13 -367 -11 -203 1 -369 2 -371 2 -2 1 0 6 3 11 10
16 735 13 735 -2z m-680 -48 c0 -5 -21 -10 -46 -10 -27 0 -43 4 -39 10 3 6 24
10 46 10 21 0 39 -4 39 -10z m480 -1 c-31 -12 -364 -12 -405 0 -20 6 48 9 200
10 162 0 223 -3 205 -10z m210 1 c0 -5 -22 -10 -50 -10 -27 0 -50 5 -50 10 0
6 23 10 50 10 28 0 50 -4 50 -10z m-719 -53 c-6 -8 -21 -13 -33 -11 -13 1 -31
3 -40 3 -10 1 -18 6 -18 11 0 6 23 10 51 10 42 0 49 -3 40 -13z m259 3 c0 -5
-22 -10 -50 -10 -27 0 -50 5 -50 10 0 6 23 10 50 10 28 0 50 -4 50 -10z m230
0 c0 -5 -22 -10 -50 -10 -27 0 -50 5 -50 10 0 6 23 10 50 10 28 0 50 -4 50
-10z m215 0 c-3 -5 -17 -10 -31 -10 -13 0 -24 5 -24 10 0 6 14 10 31 10 17 0
28 -4 24 -10z m-455 -51 c0 -9 -11 -11 -59 -12 -38 -1 -37 21 1 25 38 4 58 0
58 -13z m238 6 c17 -17 -56 -28 -77 -11 -11 9 -9 12 10 17 25 6 58 3 67 -6z
m636 -11 c34 -13 18 -56 -42 -115 -123 -119 -214 -87 -101 36 30 33 107 85
126 85 1 0 8 -3 17 -6z"/>
<path d="M1836 3539 c-34 -40 -34 -80 2 -119 60 -68 161 -29 162 61 0 84 -109
123 -164 58z m98 -7 c3 -5 -15 -25 -39 -46 -43 -35 -51 -34 -45 4 5 37 68 68
84 42z m36 -52 c0 -28 -35 -60 -65 -60 -34 0 -32 9 12 47 42 38 53 41 53 13z"/>
<path d="M1699 2316 c-2 -2 -26 -7 -54 -10 -105 -13 -133 -18 -235 -42 -144
-32 -351 -105 -440 -156 -49 -27 -130 -80 -130 -84 0 -2 48 20 108 50 206 105
424 176 620 202 26 3 56 9 67 11 39 10 471 11 545 2 247 -32 486 -101 685
-200 121 -59 129 -57 21 7 -119 70 -289 135 -447 169 -94 20 -93 20 -154 29
-27 4 -61 10 -75 13 -28 6 -505 14 -511 9z"/>
<path d="M1750 2249 c0 -4 10 -9 23 -13 22 -5 23 -9 20 -88 -5 -102 -6 -105
-35 -111 -13 -2 3 -5 36 -6 52 -1 57 1 50 17 -4 9 -10 48 -12 87 l-4 70 24
-20 c12 -10 56 -53 96 -94 39 -41 72 -71 73 -66 0 6 2 55 2 110 2 94 3 100 26
111 22 11 19 12 -28 11 -42 -2 -50 -5 -44 -17 4 -8 9 -39 11 -69 l4 -53 -70
69 c-69 67 -72 69 -121 68 -28 0 -51 -3 -51 -6z"/>
<path d="M2163 2220 c-111 -67 -62 -220 72 -220 39 0 83 19 105 45 22 27 4 27
-35 0 -21 -14 -46 -25 -56 -25 -63 0 -101 61 -80 130 13 44 27 58 67 66 33 6
84 -26 84 -52 0 -8 5 -12 10 -9 6 3 10 19 10 34 0 24 -6 30 -39 39 -56 17
-102 15 -138 -8z"/>
<path d="M1481 2118 c-18 -57 -40 -116 -48 -132 -13 -26 -13 -28 0 -23 9 3 32
9 53 13 l37 7 -26 11 c-18 7 -24 15 -18 24 6 11 13 11 36 0 24 -11 29 -10 45
10 25 30 44 28 38 -3 -4 -20 -2 -25 11 -21 9 3 36 8 61 12 37 5 41 8 24 15
-12 4 -43 33 -70 65 -27 32 -63 73 -79 92 l-30 33 -34 -103z m68 -45 c-6 -7
-22 -13 -35 -13 -21 0 -24 3 -18 28 11 43 15 45 40 21 18 -17 21 -25 13 -36z"/>
<path d="M1315 2170 c-34 -13 -42 -19 -26 -20 23 0 23 -1 17 -67 -4 -37 -9
-69 -12 -72 -2 -3 -27 17 -55 45 -45 44 -48 50 -32 61 22 17 12 16 -48 -3 -46
-15 -74 -34 -49 -34 6 0 53 -34 104 -75 91 -73 110 -84 120 -67 2 4 8 51 11
102 4 52 13 107 20 123 16 31 16 31 -50 7z"/>
<path d="M2455 2174 c19 -14 19 -16 -10 -101 -25 -74 -34 -88 -55 -93 -19 -5
3 -13 84 -33 l109 -28 28 27 c37 35 29 46 -20 27 -26 -10 -52 -13 -75 -9 -39
8 -44 22 -23 67 10 22 16 25 35 18 14 -5 22 -17 22 -31 0 -25 14 -15 24 19 6
18 2 22 -23 28 -37 8 -43 17 -35 50 4 17 13 25 28 25 30 -1 67 -23 81 -50 l12
-23 7 28 c4 15 3 31 -1 35 -4 4 -53 19 -108 33 -71 19 -94 22 -80 11z"/>
<path d="M2750 2061 c-15 -28 -14 -49 2 -33 16 16 45 14 92 -7 l38 -17 -113
-56 -114 -56 99 -46 c54 -25 104 -46 110 -46 7 0 23 14 35 31 l23 31 -22 -12
c-25 -14 -68 -7 -124 18 l-39 18 106 49 c59 28 107 53 107 58 0 4 -10 11 -22
16 -13 5 -52 23 -87 40 -76 37 -77 37 -91 12z"/>
<path d="M965 2028 c-2 -7 -6 -64 -10 -126 -3 -61 -8 -119 -11 -127 -8 -20 -2
-19 40 6 34 20 45 30 29 28 -22 -4 -33 3 -33 19 0 15 6 17 35 14 26 -3 35 0
35 11 0 8 7 20 16 28 13 10 17 10 24 -1 5 -9 5 -20 -2 -27 -16 -20 -1 -16 55
15 37 20 45 28 31 30 -18 4 -143 92 -176 126 -20 19 -27 20 -33 4z m50 -94
c20 -13 23 -20 14 -35 -5 -10 -19 -19 -29 -19 -16 0 -20 7 -20 35 0 40 2 41
35 19z"/>
<path d="M1780 1986 c-3 -2 -37 -6 -76 -9 -169 -14 -423 -85 -569 -160 -85
-44 -205 -117 -192 -117 4 0 24 11 45 24 117 73 374 174 515 202 179 34 228
39 417 38 325 0 602 -67 893 -214 53 -27 97 -48 97 -45 0 9 -128 80 -208 114
-169 74 -326 119 -542 156 -44 7 -374 17 -380 11z"/>
<path d="M710 3495 c-7 -8 -19 -15 -26 -15 -7 0 -20 -13 -29 -30 -9 -16 -20
-31 -25 -31 -6 -1 -15 -2 -22 -3 -6 0 -16 -17 -21 -36 -4 -19 -18 -42 -29 -51
-14 -11 -17 -18 -9 -23 8 -5 6 -16 -5 -38 -12 -23 -13 -36 -6 -53 10 -22 7
-35 -8 -35 -4 0 -12 11 -18 24 -8 18 -7 28 3 43 13 18 20 123 8 123 -7 0 -73
-72 -73 -80 0 -4 -11 -12 -25 -18 -18 -8 -25 -19 -25 -40 0 -19 -10 -38 -30
-55 -23 -21 -30 -36 -30 -65 0 -20 -3 -48 -7 -62 -5 -21 -4 -23 8 -13 8 7 25
10 37 7 17 -5 22 -1 28 20 4 16 1 32 -6 41 -11 13 -10 14 3 9 12 -4 18 4 26
33 6 21 11 46 11 56 0 9 4 17 9 17 6 0 6 -12 1 -30 -6 -20 -5 -30 2 -30 6 0 3
-9 -7 -20 -9 -10 -17 -31 -17 -45 -1 -14 -4 -28 -9 -31 -5 -3 -9 -12 -9 -21 0
-12 3 -13 14 -4 8 7 25 14 37 16 13 3 30 12 37 22 6 9 12 12 12 6 0 -26 -14
-43 -35 -43 -27 0 -41 -15 -50 -52 -7 -28 -35 -60 -35 -40 0 6 5 14 10 17 12
8 13 55 1 55 -30 0 -51 -115 -28 -152 9 -14 8 -25 -8 -54 -16 -30 -17 -39 -6
-56 17 -27 8 -33 -18 -12 l-21 18 25 42 c22 37 23 43 9 55 -10 8 -13 21 -9 37
12 48 13 134 2 123 -6 -6 -21 -11 -34 -11 -13 0 -29 -10 -39 -25 -10 -15 -26
-25 -40 -25 -19 0 -24 -7 -30 -37 -3 -21 -15 -53 -26 -71 -16 -26 -19 -42 -14
-75 11 -65 10 -109 -4 -117 -16 -10 -4 -29 26 -40 13 -5 24 -14 24 -18 0 -5
-16 -2 -35 7 -29 13 -34 21 -35 49 0 17 -4 32 -9 32 -12 0 -51 -80 -51 -104 0
-10 -9 -25 -21 -35 -20 -16 -20 -18 -5 -60 15 -44 8 -81 -14 -81 -19 0 -10
-59 13 -82 43 -44 67 -81 67 -104 0 -14 8 -25 20 -29 13 -4 22 -20 27 -48 7
-34 13 -42 31 -42 34 -1 44 -19 46 -81 1 -53 3 -59 25 -64 36 -8 48 -33 34
-69 -8 -23 -8 -36 2 -54 7 -14 10 -44 8 -70 -3 -26 0 -60 5 -77 14 -39 7 -38
-13 1 -11 21 -14 43 -10 68 4 23 1 49 -8 71 -9 19 -12 43 -8 55 12 33 7 49
-18 61 -32 16 -42 33 -40 69 2 55 -1 63 -26 69 -18 5 -28 17 -36 46 -8 28 -22
46 -46 60 -18 10 -33 24 -33 30 0 5 -7 10 -15 10 -10 0 -15 -9 -14 -27 1 -16
-5 -41 -14 -57 -10 -19 -13 -36 -7 -51 6 -15 4 -32 -6 -51 -14 -26 -14 -32 1
-57 12 -19 14 -39 10 -70 -6 -38 -3 -46 22 -71 15 -16 42 -35 59 -42 39 -16
94 -70 95 -92 1 -9 2 -28 2 -42 2 -20 9 -26 39 -31 60 -9 76 -33 92 -131 4
-23 17 -46 34 -60 41 -35 51 -55 13 -29 -35 25 -54 60 -71 129 -11 43 -24 54
-80 66 -16 3 -32 19 -45 43 -16 30 -27 39 -52 41 -20 2 -37 12 -47 28 -9 13
-20 24 -25 24 -13 0 -20 -93 -8 -115 6 -11 10 -33 8 -50 -1 -23 6 -36 34 -60
20 -16 38 -41 40 -55 3 -14 9 -26 15 -28 6 -2 17 -11 26 -19 11 -12 18 -13 27
-4 16 16 35 14 68 -10 26 -18 30 -19 45 -5 18 18 46 8 67 -24 6 -11 22 -20 34
-20 37 0 52 -11 64 -48 6 -21 16 -43 22 -49 14 -19 30 -16 22 4 -4 10 -7 27
-7 38 1 11 -4 23 -11 28 -8 5 -5 7 8 5 18 -3 19 3 18 62 -1 36 3 82 9 103 10
31 9 43 -4 65 -15 25 -15 30 4 71 18 40 19 47 6 70 -10 17 -12 37 -8 58 5 22
3 39 -6 50 -7 10 -14 30 -14 46 0 15 -2 27 -4 27 -16 0 -60 -33 -70 -51 -6
-13 -23 -29 -36 -36 -29 -14 -31 -27 -13 -65 20 -42 16 -67 -12 -74 -32 -8
-34 -48 -3 -81 17 -18 22 -35 20 -66 -1 -36 4 -49 33 -81 19 -22 31 -44 28
-49 -4 -7 -8 -6 -11 3 -2 8 -21 29 -40 46 -33 29 -36 36 -34 79 1 34 -4 54
-18 72 -27 34 -25 62 6 94 25 26 25 27 8 62 -19 39 -13 66 15 74 12 3 18 14
19 33 0 16 11 43 23 60 16 21 22 42 21 66 -2 22 3 43 13 54 14 16 26 92 26
175 0 93 0 97 -13 91 -7 -3 -21 -9 -30 -12 -9 -3 -22 -19 -28 -34 -6 -15 -20
-30 -30 -33 -10 -3 -26 -21 -34 -41 -8 -20 -21 -39 -29 -42 -8 -3 -14 -19 -15
-36 0 -20 -10 -40 -27 -56 -33 -31 -42 -23 -14 12 12 15 22 39 22 52 0 15 9
31 23 41 13 8 24 25 24 37 0 27 18 46 42 46 18 0 23 15 20 55 -2 13 1 16 6 8
6 -9 16 -8 40 7 18 11 38 20 45 20 18 1 43 40 52 80 4 19 11 40 15 45 4 6 10
29 14 51 6 40 5 42 -22 42 -15 0 -37 -9 -49 -20 -15 -14 -29 -19 -47 -14 -19
5 -28 1 -36 -13 -7 -13 -7 -22 0 -26 20 -13 9 -40 -35 -82 -38 -36 -48 -53
-59 -106 l-14 -62 -1 64 -1 65 49 45 c45 43 48 48 38 75 -10 31 0 46 62 86 20
14 21 18 10 42 -9 20 -9 34 -1 55 6 15 12 44 14 63 3 33 2 35 -27 32 -16 -2
-38 -13 -47 -25 -9 -12 -22 -22 -29 -22 -7 0 -17 -13 -22 -30 -12 -35 -23 -45
-54 -45 -16 0 -24 -9 -33 -37 -7 -21 -17 -42 -23 -48 -7 -7 -8 -7 -4 0 3 6 8
27 11 49 8 51 12 56 46 56 23 0 31 6 36 24 3 13 23 38 43 54 32 26 37 35 33
61 -5 35 11 61 38 61 11 0 26 15 37 38 14 30 24 38 51 40 26 3 32 7 32 27 0
17 9 29 30 40 25 13 29 19 24 44 -4 17 0 38 9 52 8 13 18 35 22 47 6 21 4 23
-22 21 -15 -2 -38 -11 -51 -21 -13 -9 -30 -14 -38 -11 -8 3 -21 0 -29 -7 -10
-8 -15 -9 -15 -2 0 15 30 30 50 25 9 -2 22 3 29 11 8 9 24 16 38 16 13 0 22 4
18 10 -3 5 8 21 24 36 25 22 28 30 20 51 -7 20 -4 28 18 49 23 22 25 28 15 45
-13 21 -5 45 22 68 13 11 13 17 4 35 -7 11 -13 27 -14 34 -4 22 -10 24 -24 7z
m-55 -149 c-1 -13 -10 -32 -20 -42 -17 -17 -17 -17 -10 6 4 14 8 30 9 35 1 8
12 21 21 25 1 0 0 -11 0 -24z m-45 -95 c-5 -18 -4 -31 1 -33 5 -2 0 -9 -11
-15 -18 -12 -19 -11 -9 14 5 14 8 32 5 39 -3 7 0 15 7 18 7 2 13 5 14 5 1 1
-2 -12 -7 -28z m-92 -101 c-7 -10 -14 -17 -17 -15 -4 4 18 35 25 35 2 0 -1 -9
-8 -20z m53 -123 c-6 -8 -9 -16 -6 -18 2 -3 -5 -10 -15 -17 -12 -7 -20 -8 -20
-2 0 5 5 10 10 10 6 0 10 9 10 20 0 12 7 20 16 20 13 0 14 -3 5 -13z m-76 -88
c-14 -12 -41 -44 -60 -72 -19 -29 -35 -46 -35 -40 0 7 5 15 10 18 6 3 10 17
10 31 0 13 5 23 12 22 7 -2 20 12 29 29 9 18 18 30 21 27 3 -2 11 3 19 12 9
10 15 12 17 5 2 -7 -8 -21 -23 -32z m-216 -71 c0 -7 -4 -22 -9 -33 -6 -16 -8
-14 -7 13 0 17 4 32 9 32 4 0 8 -6 7 -12z m-14 -84 c-9 -10 -15 -34 -15 -64 0
-43 2 -48 18 -43 16 7 16 6 0 -11 -10 -9 -19 -25 -20 -34 -1 -9 -4 15 -7 53
-6 71 9 132 30 119 5 -3 2 -12 -6 -20z m116 -211 c-5 -10 -9 -22 -9 -28 -1
-10 -22 -21 -22 -10 0 8 31 55 37 55 2 0 -1 -8 -6 -17z m-166 -15 c-1 -13 6
-31 17 -42 16 -14 18 -26 13 -57 -5 -31 -4 -39 8 -39 30 0 41 -28 28 -70 -10
-34 -9 -43 5 -65 14 -21 15 -34 6 -76 -5 -28 -8 -67 -6 -85 2 -23 -1 -32 -8
-28 -7 4 -9 32 -6 75 4 47 1 77 -8 95 -16 31 -18 70 -4 79 18 11 10 42 -14 58
-21 14 -23 22 -19 57 4 32 2 40 -10 40 -19 0 -26 19 -20 53 6 33 20 36 18 5z
m118 -77 c-14 -37 -15 -44 -2 -52 8 -5 9 -9 3 -9 -6 0 -15 -10 -21 -22 -8 -18
-9 -15 -8 18 2 22 7 50 14 62 6 11 11 31 11 43 0 15 3 20 10 13 7 -7 4 -24 -7
-53z m-203 -2 c0 -11 -4 -18 -10 -14 -5 3 -7 12 -3 20 7 21 13 19 13 -6z m20
-69 c4 0 5 -10 2 -22 -6 -23 -6 -23 -13 2 -4 14 -7 32 -7 40 0 10 2 9 5 -2 2
-10 8 -18 13 -18z m335 0 c-8 -9 -15 -24 -15 -32 0 -9 -7 -19 -16 -22 -9 -3
-14 -3 -12 1 3 5 11 22 18 39 7 17 19 31 27 31 10 0 10 -4 -2 -17z m-319 -97
c-11 -11 -24 9 -18 29 l5 22 9 -24 c5 -12 6 -25 4 -27z m267 12 c-3 -9 -8 -14
-10 -11 -3 3 -2 9 2 15 9 16 15 13 8 -4z m-240 -43 c-2 -11 3 -36 11 -57 9
-20 16 -43 15 -49 0 -6 -8 9 -18 34 -31 77 -34 90 -18 90 10 0 13 -7 10 -18z
m222 -238 c-18 -19 -38 -91 -32 -115 3 -10 -2 -24 -11 -31 -13 -11 -15 -9 -10
17 4 16 2 38 -3 47 -7 13 -6 16 5 12 9 -4 16 6 20 31 4 19 4 39 1 44 -6 11 15
20 32 14 9 -4 9 -9 -2 -19z m-250 -142 c10 -24 26 -49 35 -55 9 -7 17 -20 17
-29 0 -25 -4 -23 -22 12 -9 17 -22 30 -31 30 -8 0 -12 5 -9 10 8 12 -35 120
-47 120 -4 0 -5 7 -1 16 6 17 10 10 58 -104z m75 -132 c6 -11 8 -20 6 -20 -3
0 -10 9 -16 20 -6 11 -8 20 -6 20 3 0 10 -9 16 -20z m249 -52 c0 -31 -1 -31
-10 -10 -5 13 -7 28 -3 33 10 16 14 9 13 -23z m4 -73 c4 -8 2 -17 -3 -20 -6
-4 -10 3 -10 14 0 25 6 27 13 6z m-275 -107 c25 -26 48 -46 51 -44 3 2 15 -8
25 -23 l20 -26 -21 18 c-11 10 -30 19 -41 20 -11 0 -19 4 -17 8 7 11 -47 69
-64 69 -12 0 -16 8 -15 28 3 37 5 41 11 17 3 -11 25 -41 51 -67z m287 -63 c5
-46 4 -48 -8 -25 -7 14 -10 26 -6 28 8 4 -10 93 -23 109 -6 7 -4 13 4 15 14 5
24 -34 33 -127z m12 -92 c-3 -10 -5 -4 -5 12 0 17 2 24 5 18 2 -7 2 -21 0 -30z"/>
<path d="M3134 3464 c4 -22 9 -56 12 -77 4 -22 14 -42 25 -48 15 -7 19 -19 17
-45 -2 -26 3 -40 19 -52 11 -10 26 -28 33 -42 9 -16 -3 -8 -32 22 -36 36 -45
51 -41 71 4 18 -1 28 -16 36 -14 8 -21 21 -21 41 0 20 -7 33 -22 41 -13 6 -33
21 -45 32 -12 11 -28 17 -36 14 -8 -3 -25 0 -38 7 -16 8 -42 10 -74 6 -35 -5
-45 -9 -33 -14 10 -4 20 -16 23 -27 3 -10 18 -24 33 -31 15 -8 28 -23 30 -36
3 -17 10 -22 31 -22 39 0 65 -31 56 -68 -5 -27 -3 -31 26 -41 18 -6 43 -11 56
-11 15 0 37 -13 54 -32 23 -24 38 -31 63 -30 21 1 43 -6 56 -18 13 -11 31 -20
40 -20 10 0 30 -16 45 -36 15 -19 30 -33 33 -30 9 10 32 -16 47 -51 8 -18 21
-36 30 -39 8 -3 15 -14 15 -23 0 -10 -12 -2 -35 24 -19 22 -42 47 -51 55 -8 8
-30 30 -48 48 -18 17 -37 32 -43 32 -6 0 -22 9 -37 21 -14 11 -32 19 -39 16
-6 -2 -22 0 -34 4 -30 11 -37 -4 -13 -26 11 -10 20 -25 20 -32 0 -8 9 -26 20
-40 11 -14 20 -31 20 -38 0 -7 7 -26 15 -41 8 -16 15 -37 15 -47 0 -10 16 -27
35 -38 19 -12 40 -33 47 -47 10 -20 23 -28 57 -34 54 -9 74 9 65 60 -4 18 -2
38 3 45 14 17 24 102 14 113 -5 5 -11 29 -14 53 -4 39 -14 54 -40 64 -5 1 -10
17 -12 35 -1 18 -12 43 -23 55 -12 13 -23 32 -25 43 -1 11 -12 35 -23 53 l-21
32 -17 -25 c-10 -16 -14 -35 -10 -50 3 -14 -1 -34 -10 -48 -14 -22 -14 -26 0
-46 8 -13 14 -27 12 -32 -2 -5 -14 6 -27 25 -22 33 -23 36 -7 60 10 15 14 34
11 46 -4 11 -2 26 5 34 9 10 6 15 -10 20 -12 4 -28 22 -36 41 -11 25 -20 34
-38 34 -17 0 -27 9 -35 29 -11 24 -26 37 -75 59 -5 3 -5 -13 -2 -34z m-36
-125 c44 -49 50 -59 30 -59 -6 0 -8 3 -4 7 8 8 -63 83 -80 83 -7 0 -14 7 -17
14 -11 27 27 3 71 -45z m152 -26 c0 -10 7 -29 16 -41 8 -12 12 -22 7 -22 -16
0 -28 16 -31 39 -1 14 -9 38 -17 54 -20 41 -19 45 5 14 11 -14 20 -34 20 -44z
m150 -123 c0 -5 -2 -10 -4 -10 -3 0 -8 5 -11 10 -3 6 -1 10 4 10 6 0 11 -4 11
-10z m20 -35 c0 -8 -4 -15 -10 -15 -5 0 -10 7 -10 15 0 8 5 15 10 15 6 0 10
-7 10 -15z m10 -60 c0 -5 -5 -3 -10 5 -5 8 -10 20 -10 25 0 6 5 3 10 -5 5 -8
10 -19 10 -25z m-60 -95 c13 -22 28 -40 32 -40 4 0 8 -6 8 -13 0 -18 24 -67
33 -67 4 0 7 -7 7 -15 0 -8 -4 -15 -10 -15 -5 0 -10 6 -10 14 0 8 -8 22 -17
32 -10 9 -18 22 -18 28 -1 21 -16 56 -25 56 -5 0 -15 14 -24 30 -21 43 -5 36
24 -10z"/>
<path d="M1063 3477 c-22 -7 -33 -18 -33 -30 0 -10 -15 -31 -32 -48 -18 -16
-29 -29 -25 -29 16 0 -15 -41 -38 -50 -29 -11 -54 -50 -31 -50 8 0 20 -2 28
-5 7 -3 20 7 29 24 12 20 29 31 55 38 33 7 39 13 40 36 1 34 7 40 41 42 22 1
29 7 31 25 2 14 8 29 13 35 25 26 -15 32 -78 12z m7 -54 c-13 -9 -32 -25 -42
-35 -10 -10 -21 -18 -25 -18 -5 0 12 18 36 40 25 22 47 37 50 35 3 -3 -6 -13
-19 -22z"/>
<path d="M887 3249 c-9 -6 -26 -8 -36 -4 -11 3 -26 -1 -35 -11 -11 -10 -26
-14 -44 -11 -31 6 -80 -12 -101 -36 -11 -14 -11 -18 3 -23 13 -5 15 -14 10
-43 -4 -20 -13 -43 -21 -52 -9 -10 -12 -26 -8 -42 7 -25 1 -33 -39 -61 -18
-12 -18 -13 0 -14 11 -1 34 -2 52 -2 26 1 32 -3 32 -20 0 -11 5 -20 12 -20 16
0 108 98 108 115 0 17 -23 25 -49 18 -14 -3 -23 0 -27 11 -6 15 -8 15 -31 1
-13 -9 -31 -15 -40 -13 -11 2 -4 10 20 23 31 16 40 18 58 7 16 -10 22 -10 35
3 9 8 29 22 45 30 16 9 29 22 29 31 0 8 8 17 18 21 15 5 87 74 80 77 -2 1 -13
7 -25 14 -27 14 -23 14 -46 1z m-37 -53 c0 -2 -7 -7 -16 -10 -8 -3 -12 -2 -9
4 6 10 25 14 25 6z m-46 -31 c-4 -8 -14 -15 -23 -15 -9 0 -34 -15 -56 -32
l-40 -33 30 36 c17 20 44 41 60 47 17 5 31 10 32 11 1 1 0 -6 -3 -14z m-84
-185 c-8 -5 -24 -9 -35 -9 -18 0 -18 1 3 9 12 5 22 15 22 22 0 9 3 9 12 0 10
-10 10 -15 -2 -22z"/>
<path d="M3570 3000 c-12 -12 -20 -33 -20 -53 0 -18 -6 -42 -14 -52 -10 -13
-11 -25 -5 -37 10 -18 -7 -68 -23 -68 -12 0 -10 -34 4 -48 7 -7 19 -12 28 -12
30 0 51 -25 53 -62 2 -25 11 -44 30 -62 31 -29 32 -33 12 -77 l-16 -34 7 42
c5 39 3 44 -20 55 -26 11 -33 26 -38 83 -3 25 -8 31 -36 35 -25 4 -36 13 -50
40 -14 29 -22 34 -44 32 -14 -2 -29 2 -33 7 -3 6 -13 11 -22 11 -11 0 -14 -6
-9 -24 3 -14 2 -36 -3 -49 -8 -21 -5 -28 21 -47 30 -22 32 -37 13 -82 -5 -12
1 -21 24 -33 35 -17 39 -39 14 -75 -16 -22 -16 -24 5 -38 12 -8 22 -21 22 -29
0 -8 9 -26 19 -39 12 -16 17 -32 13 -47 -6 -22 -7 -22 -10 3 -2 14 -9 32 -16
40 -7 8 -16 23 -19 33 -9 24 -37 22 -37 -3 0 -11 4 -20 8 -20 5 0 16 -18 25
-40 11 -28 21 -40 35 -40 27 0 47 -26 44 -59 -2 -22 4 -30 30 -42 31 -14 32
-15 34 -92 l2 -77 -20 40 c-16 31 -18 47 -11 63 13 29 6 47 -17 47 -23 0 -40
28 -40 65 0 20 -8 29 -34 40 -24 10 -35 22 -39 45 -4 17 -15 33 -24 36 -10 3
-26 10 -35 15 -10 5 -22 9 -27 9 -14 0 -20 -52 -8 -78 8 -17 8 -28 -1 -43 -17
-27 -15 -38 15 -82 22 -32 25 -42 15 -58 -17 -27 -15 -43 8 -64 17 -15 20 -26
15 -59 -6 -37 -3 -44 29 -74 25 -23 36 -42 36 -62 0 -16 5 -32 10 -35 6 -4 10
-21 8 -38 -1 -24 6 -40 26 -60 21 -21 25 -32 19 -50 -4 -12 -7 -48 -5 -80 2
-40 -1 -57 -8 -52 -6 3 -8 11 -5 16 4 5 1 24 -6 43 -7 19 -9 41 -4 52 17 41
15 54 -11 66 -21 10 -25 18 -24 47 3 56 2 59 -27 59 -18 0 -35 9 -50 28 -22
28 -23 28 -23 7 0 -13 -9 -32 -20 -43 -17 -17 -19 -28 -14 -56 6 -31 3 -39
-21 -58 l-27 -22 21 -40 c20 -38 20 -74 0 -74 -4 0 -13 -8 -18 -18 -7 -13 -1
-31 25 -72 33 -52 43 -95 25 -102 -5 -1 -11 -22 -13 -44 -4 -32 -1 -46 13 -58
23 -19 24 -35 5 -71 -8 -16 -12 -41 -9 -60 4 -28 1 -36 -29 -59 -47 -36 -60
-33 -19 4 28 26 32 35 26 61 -5 20 -2 38 9 54 20 31 20 40 -1 60 -11 11 -16
31 -15 55 2 31 -3 44 -29 69 -31 31 -49 33 -49 5 0 -8 -9 -22 -20 -31 -15 -13
-18 -25 -14 -53 5 -32 3 -37 -21 -48 -22 -10 -26 -17 -21 -38 4 -15 2 -32 -6
-41 -7 -9 -11 -28 -10 -44 2 -15 -2 -37 -8 -48 -8 -16 -7 -26 6 -47 17 -25 17
-26 -15 -56 -25 -24 -30 -33 -20 -44 17 -21 3 -60 -31 -84 -38 -27 -40 -13 -2
16 25 21 26 25 15 54 -11 29 -9 34 17 61 25 27 27 33 17 60 -9 22 -9 34 1 49
16 27 15 38 -8 67 -11 14 -20 34 -20 44 0 27 -6 24 -56 -25 -36 -36 -44 -50
-40 -71 5 -28 -22 -65 -49 -65 -16 0 -30 -42 -21 -65 3 -9 -8 -30 -29 -53 -32
-36 -33 -39 -14 -50 25 -16 24 -31 -6 -72 -23 -31 -24 -35 -10 -57 21 -32 5
-59 -50 -83 -38 -16 -42 -22 -40 -48 4 -47 -8 -56 -82 -63 -37 -3 -77 -9 -88
-14 -19 -7 -19 -7 -3 10 11 12 36 20 75 23 60 4 86 21 76 48 -7 19 20 49 57
64 32 13 46 38 30 54 -16 16 -12 41 10 69 22 28 26 53 8 59 -6 2 -13 15 -15
28 -5 34 -10 36 -37 11 -13 -12 -30 -22 -37 -21 -28 4 -36 -1 -48 -27 -11 -23
-10 -29 3 -39 22 -15 20 -31 -5 -44 -11 -7 -25 -25 -31 -40 -9 -26 -33 -43
-63 -45 -5 0 -11 -15 -13 -33 -2 -24 -11 -36 -33 -47 -16 -9 -34 -13 -39 -10
-5 3 -17 -4 -27 -16 -10 -12 -27 -30 -37 -40 -22 -21 -11 -24 30 -9 35 14 61
5 76 -27 10 -20 22 -28 48 -31 40 -4 50 -11 54 -38 5 -31 91 -32 123 -2 25 23
24 23 95 -7 13 -5 21 0 29 19 10 22 19 26 56 26 23 0 43 5 43 10 0 6 13 18 29
28 l29 18 -43 23 c-25 13 -51 20 -62 17 -13 -4 -26 1 -38 14 -13 14 -22 17
-36 10 -28 -15 -54 -12 -74 10 -20 22 -14 26 14 9 13 -9 26 -9 49 -1 23 8 35
7 49 -3 21 -17 59 -19 68 -5 3 5 18 10 32 10 14 0 41 9 59 21 25 15 42 18 68
13 32 -5 37 -3 46 20 8 22 16 26 48 26 27 0 45 7 58 21 10 12 31 27 46 35 32
16 37 34 10 34 -10 0 -33 11 -52 24 -33 22 -36 23 -67 8 -31 -15 -35 -15 -63
7 -30 22 -70 22 -70 0 0 -6 -15 -16 -32 -24 -29 -12 -36 -12 -56 1 -33 21 -57
10 -87 -41 -25 -44 -65 -77 -65 -55 0 5 5 10 10 10 6 0 24 21 40 47 40 62 65
76 104 56 27 -14 31 -13 55 6 53 43 69 46 101 23 32 -24 55 -28 66 -11 3 6 19
9 35 5 24 -5 33 0 60 34 27 34 40 41 81 46 41 6 51 11 60 33 19 49 25 56 56
65 22 6 34 18 42 39 6 17 19 41 31 53 l20 21 -47 7 c-40 5 -51 3 -69 -14 -23
-22 -55 -26 -72 -9 -8 8 -19 -1 -39 -30 -38 -53 -46 -52 -20 3 23 48 38 57 75
44 19 -7 27 -4 38 12 8 11 24 20 36 20 28 0 73 50 82 91 4 16 18 41 32 54 24
22 25 26 13 54 -7 17 -10 40 -7 52 5 18 3 20 -21 13 -15 -4 -38 -8 -52 -10
-14 -1 -28 -3 -32 -3 -3 -1 -16 -17 -28 -36 -15 -24 -29 -35 -45 -35 -16 0
-26 -9 -35 -30 -7 -17 -27 -38 -44 -46 l-31 -15 27 23 c15 13 31 35 37 51 7
19 20 29 41 33 19 4 36 18 49 40 20 33 29 38 63 35 9 -1 28 5 42 14 23 15 26
15 45 -4 12 -12 25 -21 30 -21 13 0 31 25 36 50 2 13 11 30 20 40 8 9 15 26
15 38 0 11 5 24 10 27 6 3 10 13 10 21 0 24 -87 19 -100 -6 -16 -30 -45 -42
-74 -30 -23 8 -28 6 -43 -18 -24 -37 -32 -42 -75 -42 -43 0 -53 -14 -57 -75
-3 -42 -23 -89 -43 -101 -8 -5 -7 2 3 16 9 14 19 54 22 89 6 77 22 96 76 93
35 -2 41 1 59 33 23 39 29 41 67 23 24 -11 28 -9 49 17 16 20 32 28 57 29 29
1 36 6 44 31 6 17 20 41 33 53 13 13 22 33 21 45 -2 12 3 33 10 46 19 35 0 48
-40 28 -18 -8 -38 -13 -46 -10 -16 6 -17 -2 -1 -26 17 -28 -3 -66 -49 -90 -21
-11 -43 -28 -50 -39 -7 -11 -26 -23 -44 -27 -18 -4 -45 -21 -62 -39 l-29 -31
15 30 c9 19 36 42 66 59 28 15 51 31 51 36 0 5 18 19 39 30 47 24 53 36 34 74
-16 31 -5 76 18 76 19 0 79 50 79 66 0 8 -6 23 -12 34 -11 17 -10 26 5 51 9
17 17 37 17 44 0 19 -43 84 -56 85 -18 0 -94 -78 -94 -97 0 -26 -11 -38 -47
-57 -27 -14 -32 -22 -35 -58 -3 -37 -7 -45 -35 -57 -36 -16 -43 -32 -31 -75 7
-28 4 -45 -7 -34 -3 3 -8 28 -12 55 -5 49 -5 51 26 64 29 13 51 54 51 95 0 6
13 17 30 24 19 8 33 23 40 46 6 18 21 42 34 51 20 17 76 100 88 134 3 8 0 26
-7 39 -11 21 -10 29 8 61 20 35 21 39 5 56 -11 12 -14 23 -8 32 9 16 5 119 -5
129 -4 4 -11 -1 -17 -11 -5 -10 -21 -22 -34 -27 -16 -6 -27 -20 -31 -40 -3
-17 -18 -39 -34 -51 -26 -18 -28 -24 -23 -60 6 -38 5 -40 -25 -52 -29 -11 -32
-15 -26 -42 9 -39 8 -66 -3 -77 -5 -5 -9 4 -10 19 -1 16 -5 45 -8 65 -6 34 -4
39 20 48 25 9 30 21 27 66 -2 14 9 30 28 44 17 12 31 28 31 36 0 8 11 26 24
39 14 14 20 27 14 33 -11 11 -14 88 -4 127 6 23 3 35 -12 53 -15 17 -18 32
-14 67 4 37 1 46 -14 52 -27 10 -34 24 -28 58 4 24 -1 35 -25 58 l-30 28 -21
-21z m17 -92 c-3 -8 -6 -5 -6 6 -1 11 2 17 5 13 3 -3 4 -12 1 -19z m25 -75 c6
-7 15 -10 22 -6 6 4 5 0 -2 -9 -15 -18 -7 -108 9 -108 5 0 6 -7 2 -15 -7 -21
-16 -11 -20 23 -2 15 -11 32 -19 38 -11 9 -12 13 -2 16 16 6 -7 88 -25 88 -7
0 -6 4 3 10 11 7 16 5 19 -8 2 -9 8 -23 13 -29z m-146 -130 c20 -26 17 -35 -6
-21 -11 7 -20 18 -20 25 0 18 10 16 26 -4z m53 -76 c4 1 7 -14 7 -32 0 -32 -1
-33 -17 -17 -9 9 -14 22 -12 29 3 6 -1 22 -7 35 -11 22 -11 22 5 3 9 -11 20
-19 24 -18z m41 -112 c11 7 14 -8 3 -19 -4 -4 -6 -28 -5 -54 1 -43 0 -44 -15
-2 -3 8 -6 38 -8 65 -3 38 -1 44 6 27 5 -13 13 -20 19 -17z m156 -112 c-4 -9
-1 -20 6 -24 9 -6 9 -11 0 -21 -6 -7 -14 -38 -18 -67 -6 -45 -5 -53 7 -46 8 5
4 -3 -7 -16 -12 -13 -31 -43 -43 -66 -11 -23 -24 -44 -29 -47 -5 -3 5 21 20
52 16 31 27 67 25 79 -2 12 0 24 4 25 13 4 27 94 18 109 -4 8 -3 19 3 26 15
18 21 16 14 -4z m-260 -193 c13 12 14 10 3 -13 l-12 -27 -19 30 c-10 17 -18
38 -18 48 1 9 7 2 15 -17 13 -29 17 -32 31 -21z m33 -90 c10 0 12 -3 5 -10 -7
-7 -6 -29 0 -65 8 -42 14 -54 25 -50 11 5 11 2 -2 -13 -10 -11 -18 -38 -19
-68 l-1 -49 -4 45 c-3 24 -9 50 -15 57 -7 9 -7 13 1 13 15 0 14 61 -3 85 -7
11 -13 27 -13 35 0 8 -3 26 -6 40 -7 24 -7 25 4 3 7 -13 19 -23 28 -23z m259
-70 c-15 -24 -19 -21 -11 8 3 12 9 19 14 16 5 -3 3 -14 -3 -24z m-40 -123
c-27 -23 -88 -116 -88 -135 0 -6 8 -13 18 -15 14 -4 14 -5 -3 -6 -29 -2 -53
-23 -76 -67 -11 -23 -17 -28 -13 -14 4 14 18 42 31 64 15 22 23 48 20 61 -2
15 0 22 8 18 17 -6 55 45 55 74 0 13 4 22 9 19 5 -3 11 0 14 7 2 7 15 13 28
14 23 2 23 2 -3 -20z m-165 -152 c-3 -9 -8 -14 -10 -11 -3 3 -2 9 2 15 9 16
15 13 8 -4z m-138 -5 c3 -5 1 -10 -4 -10 -6 0 -11 5 -11 10 0 6 2 10 4 10 3 0
8 -4 11 -10z m21 -114 c-19 -15 -32 -96 -15 -96 9 0 8 -5 -3 -17 -9 -11 -16
-42 -17 -78 -3 -74 -11 -87 -11 -17 0 28 -5 54 -11 57 -6 5 -4 12 8 21 10 7
15 14 12 14 -4 0 -3 17 1 37 5 22 5 44 -1 55 -6 12 -6 18 1 18 5 0 10 6 10 14
0 9 7 12 20 9 17 -5 18 -7 6 -17z m269 -96 c3 -5 -1 -10 -10 -10 -9 0 -13 5
-10 10 3 6 8 10 10 10 2 0 7 -4 10 -10z m-70 -31 c-22 -10 -39 -23 -37 -29 1
-5 -1 -10 -5 -11 -35 -3 -52 -12 -74 -39 -25 -29 -26 -30 -22 -7 3 14 19 31
41 43 19 10 42 26 50 34 8 8 24 16 35 17 12 2 23 6 26 8 2 3 9 5 15 4 6 0 -7
-9 -29 -20z m-35 -168 c0 -11 -9 -21 -23 -25 -12 -3 -38 -21 -57 -41 -28 -28
-32 -38 -21 -45 11 -6 9 -9 -9 -12 -15 -2 -37 -21 -57 -48 -17 -25 -42 -56
-55 -70 -13 -15 -16 -17 -7 -5 26 32 47 79 41 94 -3 8 0 11 6 7 11 -7 79 70
75 85 -2 5 0 8 5 7 13 -5 72 36 78 54 7 24 24 23 24 -1z m-229 -24 c-10 -9
-11 -8 -5 6 3 10 9 15 12 12 3 -3 0 -11 -7 -18z m-111 -20 c0 -11 -1 -18 -3
-16 -1 2 -8 11 -15 20 -9 13 -9 16 3 16 8 0 15 -9 15 -20z m-4 -97 c-20 -28
-36 -60 -36 -73 0 -8 -10 -22 -21 -33 l-22 -19 15 30 c34 66 58 125 59 142 1
12 3 10 8 -7 5 -15 3 -31 -3 -40z m-195 -105 c-5 -5 -13 -23 -19 -40 l-10 -30
2 37 c0 21 4 38 9 38 4 0 7 8 7 18 0 14 2 15 10 2 5 -8 5 -19 1 -25z m480 -8
c-10 -9 -11 -8 -5 6 3 10 9 15 12 12 3 -3 0 -11 -7 -18z m-1 -27 c12 -8 11
-10 -6 -10 -24 0 -89 -64 -80 -79 5 -7 -3 -11 -20 -11 l-27 0 27 21 c14 11 26
29 26 40 0 11 4 17 10 14 5 -3 17 3 27 15 20 23 22 23 43 10z m-290 -15 c14
-13 22 -14 43 -4 21 10 31 9 49 -3 13 -8 31 -14 40 -12 9 1 22 -4 28 -11 9
-11 4 -23 -21 -54 -17 -22 -41 -44 -53 -47 -12 -4 -36 -20 -54 -35 -49 -43
-56 -35 -11 11 22 22 47 40 55 40 19 0 53 39 54 60 0 25 -53 43 -84 29 -22
-10 -29 -9 -46 6 -18 16 -23 17 -48 4 -47 -23 -48 -23 -17 4 35 31 43 32 65
12z m-209 -45 c-16 -13 -61 -89 -61 -105 0 -3 10 -6 23 -6 22 -2 22 -2 0 -6
-24 -5 -56 -32 -91 -78 -32 -41 -17 -12 31 58 29 44 38 66 35 88 -3 21 -1 26
7 19 9 -8 16 -2 25 19 8 20 18 29 31 28 20 -1 20 -1 0 -17z m269 -22 c0 -8
-14 -13 -34 -14 -66 -1 -122 -40 -83 -58 6 -4 2 -4 -10 -2 -14 2 -31 -5 -48
-21 -42 -42 -28 -17 21 38 40 46 50 51 90 54 25 2 48 6 51 9 9 9 13 7 13 -6z
m-509 -175 c-25 -43 -28 -46 -28 -19 0 14 3 23 8 20 5 -3 9 0 9 5 0 6 5 11 10
11 7 0 7 -6 1 -17z m484 -23 c-3 -5 -13 -10 -22 -10 -13 0 -13 -2 -2 -17 13
-15 12 -15 -10 -3 -16 8 -42 10 -74 7 -58 -7 -64 -11 -48 -31 11 -13 8 -13
-17 -4 -41 16 -116 -7 -109 -33 3 -12 0 -15 -15 -11 -10 2 -39 -3 -64 -13 -25
-9 -47 -15 -50 -13 -2 3 14 11 37 18 23 8 54 27 70 43 16 16 29 24 29 18 0
-10 117 25 134 39 4 5 22 6 40 4 17 -3 45 0 61 5 40 13 47 13 40 1z m-521 -41
c-3 -6 0 -15 7 -20 11 -7 10 -9 -3 -9 -25 0 -100 -70 -94 -87 4 -9 -3 -13 -20
-13 -14 0 -35 -5 -47 -10 -20 -10 -20 -9 -3 2 11 7 31 24 45 38 14 13 29 24
33 23 4 -2 24 17 45 42 37 43 51 56 37 34z m30 -184 c-4 -9 0 -16 7 -16 8 -1
25 -3 39 -4 14 -2 30 1 36 6 7 6 16 4 24 -6 11 -13 9 -15 -12 -15 -32 0 -41
-9 -26 -29 7 -9 1 -6 -13 7 -19 17 -38 22 -78 22 -46 0 -53 -2 -49 -18 5 -17
3 -17 -27 -3 l-32 16 26 7 c14 5 39 9 54 10 16 1 33 10 38 20 12 22 21 24 13
3z m183 -31 c-3 -3 -12 -4 -19 -1 -8 3 -5 6 6 6 11 1 17 -2 13 -5z"/>
<path d="M592 2923 c-5 -9 -20 -17 -33 -19 -13 -1 -28 -3 -32 -3 -4 -1 -13
-15 -19 -32 -7 -20 -22 -36 -42 -44 -23 -10 -32 -21 -34 -40 -2 -25 0 -26 41
-23 47 3 44 12 33 -94 l-5 -47 44 30 c32 22 43 35 40 50 -2 11 4 27 15 37 11
9 20 28 20 43 0 17 9 32 25 43 19 12 25 25 25 51 0 18 5 37 10 40 18 11 11 26
-7 17 -10 -5 -27 -6 -38 -1 -29 11 -33 11 -43 -8z m-11 -101 c-5 -10 -18 -25
-27 -33 -16 -13 -16 -12 -3 11 20 36 48 56 30 22z"/>
<path d="M3182 2873 c-30 -4 -33 -7 -27 -26 8 -29 13 -50 14 -60 1 -4 17 -15
36 -23 33 -13 36 -18 33 -51 -3 -35 -1 -38 42 -53 41 -14 45 -18 48 -53 3 -30
9 -40 29 -48 22 -8 25 -14 21 -42 -3 -17 -3 -38 -1 -44 6 -16 33 -17 33 -2 0
6 9 22 20 36 15 20 17 29 9 39 -6 8 -17 14 -25 14 -24 0 -35 35 -18 59 15 20
14 23 -17 52 -30 28 -32 33 -21 61 8 22 8 36 0 51 -8 16 -7 23 8 34 19 14 18
15 -1 29 -11 8 -30 12 -43 9 -12 -3 -35 1 -52 10 -16 8 -35 14 -42 13 -7 0
-28 -3 -46 -5z m103 -89 c14 -14 30 -22 35 -19 6 3 10 -1 10 -10 0 -14 -5 -12
-31 7 -17 13 -41 29 -52 35 -18 10 -19 13 -5 13 9 0 29 -11 43 -26z"/>
<path d="M628 1445 c-7 -16 -23 -28 -40 -32 -25 -5 -28 -10 -26 -38 1 -18 -4
-40 -11 -48 -13 -16 -6 -87 9 -87 5 0 11 -13 15 -29 3 -16 15 -37 26 -47 25
-22 82 -105 76 -110 -8 -8 -106 114 -112 138 -4 15 -20 31 -39 41 -26 12 -35
24 -40 51 -8 41 -20 51 -58 48 -21 -2 -31 4 -43 28 -16 30 -38 39 -50 20 -8
-13 -43 -3 -68 18 -15 13 -21 13 -42 2 -19 -10 -33 -11 -60 -3 -20 6 -37 7
-40 2 -12 -18 20 -95 52 -125 19 -18 31 -38 28 -46 -9 -23 26 -46 79 -52 49
-6 101 -39 90 -57 -3 -5 5 -9 18 -9 57 -1 101 -9 115 -22 12 -13 5 -13 -50 -7
-35 4 -72 6 -83 5 -10 -2 -31 3 -46 11 -30 15 -46 14 -39 -2 3 -5 5 -25 5 -44
1 -29 7 -38 41 -57 34 -19 40 -27 39 -53 -1 -27 3 -32 35 -41 20 -5 40 -10 45
-10 6 0 21 -10 35 -23 38 -35 104 -51 133 -34 25 15 26 15 76 3 28 -6 37 -4
53 13 20 22 37 20 78 -9 22 -16 27 -16 52 -1 27 15 28 14 72 -26 24 -22 55
-44 68 -48 27 -8 69 -44 69 -58 0 -6 -10 -1 -22 10 -13 11 -39 26 -58 34 -19
7 -51 28 -71 46 -32 29 -38 31 -49 18 -15 -18 -43 -12 -79 17 -24 18 -25 18
-47 -3 -17 -16 -30 -20 -48 -15 -15 3 -38 9 -52 12 -21 5 -31 1 -49 -22 -19
-24 -31 -29 -66 -29 -54 0 -60 -16 -14 -38 23 -11 35 -24 35 -37 0 -21 36 -36
69 -27 23 6 51 -10 51 -28 0 -8 6 -15 13 -16 6 -1 30 -3 52 -5 117 -10 175
-12 180 -5 2 5 23 5 45 1 29 -5 45 -3 62 9 12 8 35 14 50 12 27 -2 27 -2 23
46 -3 26 -9 49 -15 51 -5 2 -20 12 -33 22 -21 17 -24 27 -23 77 1 32 5 63 9
70 4 6 3 14 -2 17 -4 3 -11 19 -14 36 -4 16 -13 30 -20 30 -24 0 -49 37 -45
67 2 21 -2 28 -17 31 -26 5 -45 30 -45 59 0 15 -10 28 -29 37 -16 9 -32 23
-35 33 -6 15 -10 13 -31 -12 -16 -20 -22 -38 -18 -53 3 -14 -1 -30 -12 -42
-15 -17 -16 -24 -7 -46 17 -37 14 -42 -8 -14 -24 30 -25 53 -4 70 19 16 15 57
-8 92 -10 14 -21 41 -24 60 -4 18 -13 38 -21 45 -8 6 -15 26 -16 45 -1 18 -10
39 -19 46 -10 7 -18 22 -18 32 0 30 -19 33 -32 5z m22 -122 c0 -25 -15 -12
-17 14 -1 19 1 22 8 12 5 -8 9 -20 9 -26z m-366 -19 c5 -12 0 -12 -24 1 -36
19 -38 24 -6 18 14 -3 27 -11 30 -19z m96 -44 c11 -11 31 -22 44 -26 14 -3 42
-21 61 -40 20 -19 40 -32 45 -29 4 3 10 -4 13 -15 5 -20 5 -20 -20 -1 -13 11
-31 17 -39 14 -10 -3 -12 0 -8 10 8 22 -92 79 -126 73 -14 -3 -19 -3 -12 0 6
3 12 12 12 20 0 19 6 18 30 -6z m290 -51 c0 -11 9 -28 20 -39 11 -11 18 -20
15 -20 -3 0 2 -15 11 -32 18 -37 11 -31 -29 24 -15 20 -27 46 -27 57 0 12 -8
29 -18 39 -12 12 -15 21 -8 28 12 12 36 -26 36 -57z m206 -97 c-8 -13 39 -87
53 -84 7 1 10 -2 6 -8 -3 -5 -1 -19 5 -30 18 -34 3 -22 -20 15 -12 20 -28 41
-34 48 -18 17 -29 67 -16 67 6 0 9 -4 6 -8z m-240 -57 c27 -21 38 -24 53 -15
30 16 48 12 77 -15 30 -28 44 -31 61 -14 18 18 41 3 60 -35 9 -19 28 -40 43
-46 17 -7 35 -27 46 -51 9 -22 25 -44 33 -49 14 -8 14 -9 -1 -10 -10 0 -28 19
-43 44 -16 27 -35 46 -50 50 -16 4 -30 19 -39 41 -16 37 -26 41 -56 25 -15 -8
-26 -4 -53 20 -31 27 -37 28 -64 18 -32 -12 -34 -11 -99 37 -8 6 -22 4 -40 -5
-14 -8 -37 -13 -50 -12 -27 4 -31 -10 -9 -28 8 -7 15 -23 15 -36 0 -17 8 -28
28 -35 51 -21 57 -26 59 -55 l2 -29 -11 27 c-11 27 -57 45 -69 27 -3 -5 -17 0
-31 11 -15 11 -32 20 -39 20 -7 0 -9 3 -6 7 4 3 -2 17 -14 29 -12 13 -16 24
-10 28 5 4 12 -2 15 -12 4 -10 18 -29 31 -42 l25 -23 0 30 c0 17 -7 36 -15 43
-18 15 -20 49 -2 51 6 1 24 1 38 0 16 0 29 5 33 14 8 23 45 18 82 -10z m7 -80
c15 -11 14 -12 -13 -11 -16 1 -32 6 -34 12 -6 14 25 14 47 -1z m177 -46 c25
-7 51 -19 58 -26 18 -17 17 -17 -53 12 -36 14 -69 22 -83 18 -22 -5 -23 -4
-11 15 11 18 16 19 29 8 8 -8 35 -20 60 -27z m-97 24 c-7 -2 -19 -2 -25 0 -7
3 -2 5 12 5 14 0 19 -2 13 -5z m283 -50 c0 -13 -1 -23 -2 -23 -1 0 -8 10 -17
23 -13 21 -13 23 2 23 11 0 17 -8 17 -23z m-127 -161 c-14 -5 -39 6 -39 17 0
5 11 4 25 -2 13 -7 20 -14 14 -15z m-145 10 c3 -5 -1 -9 -9 -9 -8 0 -15 4 -15
9 0 4 4 8 9 8 6 0 12 -4 15 -8z m74 -18 c-26 -29 -26 -29 -21 -1 3 13 12 23
23 24 17 2 17 0 -2 -23z m-108 12 c0 -2 -9 -6 -20 -9 -11 -3 -18 -1 -14 4 5 9
34 13 34 5z m296 -33 c-1 -2 -17 2 -36 7 -23 7 -38 6 -47 -2 -11 -9 -13 -8
-11 3 5 22 40 27 70 10 15 -9 26 -17 24 -18z"/>
<path d="M2214 1043 c-35 -17 -44 -30 -44 -64 0 -44 51 -76 95 -59 17 6 25 6
25 -1 0 -17 -22 -52 -44 -71 -21 -17 -20 -18 11 -7 72 24 103 102 68 169 -9
17 -17 30 -18 30 -1 0 -16 4 -34 9 -23 7 -39 5 -59 -6z m54 -30 c20 -54 21
-62 7 -73 -17 -14 -41 9 -50 50 -12 53 24 72 43 23z"/>
<path d="M1648 1045 c-3 -3 -21 -7 -41 -8 -40 -4 -63 -17 -29 -17 26 0 25 2
11 -76 -12 -64 -25 -87 -43 -77 -7 4 -8 3 -1 -4 6 -6 34 -15 63 -20 48 -9 51
-9 38 6 -15 17 -14 38 7 139 12 55 11 72 -5 57z"/>
<path d="M1762 1008 c-15 -15 -16 -65 0 -70 6 -2 0 -15 -16 -31 -26 -26 -27
-30 -13 -50 34 -53 122 -59 154 -10 15 22 15 26 -5 53 -18 23 -19 29 -7 34 22
8 19 63 -4 76 -27 14 -94 13 -109 -2z m86 -26 c4 -23 -13 -52 -29 -52 -16 0
-27 35 -18 58 11 30 43 25 47 -6z m-13 -106 c0 -43 -25 -70 -46 -49 -27 27 -4
97 30 91 11 -2 16 -15 16 -42z"/>
<path d="M1969 999 c-11 -11 -18 -23 -15 -27 4 -3 12 3 20 13 20 27 44 27 63
-1 22 -35 4 -91 -42 -130 -19 -16 -35 -32 -35 -37 0 -7 150 1 159 9 1 1 5 20
7 40 3 35 2 36 -11 17 -9 -12 -29 -22 -49 -25 l-35 -4 35 38 c41 46 45 89 12
112 -32 23 -84 20 -109 -5z"/>
<path d="M1067 883 c-3 -5 -2 -15 3 -22 4 -8 3 -27 -2 -43 -6 -16 -9 -30 -7
-31 54 -36 80 -62 78 -80 -3 -40 1 -45 39 -58 53 -17 65 -29 58 -61 -6 -33 -3
-35 58 -43 74 -8 88 -22 25 -23 -62 0 -99 19 -99 51 0 30 -11 44 -43 56 -36
14 -50 14 -41 0 4 -8 -3 -9 -24 -4 -23 5 -38 1 -60 -15 -23 -17 -33 -19 -56
-10 -43 16 -55 12 -64 -22 -7 -28 -13 -33 -43 -36 -36 -4 -62 -19 -54 -32 2
-4 18 -10 34 -13 19 -4 36 -18 48 -37 16 -29 22 -31 55 -27 29 4 43 0 65 -19
29 -24 57 -31 67 -15 10 16 44 19 69 6 44 -22 77 -27 77 -10 0 8 12 21 28 27
15 6 43 28 62 48 33 35 38 37 93 35 47 -1 60 2 68 17 5 10 7 18 3 18 -4 0 1 9
11 20 23 25 41 25 83 0 39 -24 58 -25 66 -5 9 24 56 17 107 -16 51 -32 92 -72
54 -52 -11 6 -37 25 -59 42 -21 17 -42 31 -47 31 -4 0 -21 -11 -37 -25 l-29
-24 -51 26 c-43 22 -54 24 -67 13 -9 -7 -14 -19 -11 -27 8 -21 -35 -41 -84
-38 -54 3 -80 -9 -80 -35 0 -21 -28 -40 -60 -40 -15 0 -22 -8 -26 -29 -4 -20
-16 -33 -41 -45 -46 -22 -33 -39 23 -30 33 5 47 2 59 -10 13 -13 20 -13 35 -3
11 6 20 15 20 19 0 20 40 27 73 13 33 -13 36 -13 73 14 49 35 78 43 101 25 28
-21 41 -17 74 21 17 19 38 35 46 35 8 0 29 11 47 25 18 14 37 25 41 25 5 0 0
-6 -11 -14 -24 -18 -15 -27 25 -28 17 -1 31 -4 31 -7 -1 -19 -31 -41 -60 -43
-26 -2 -35 -9 -46 -34 -7 -17 -20 -34 -29 -37 -12 -5 -13 -11 -3 -31 8 -19 8
-29 -1 -40 -10 -11 -7 -19 12 -38 24 -24 25 -24 47 -6 12 10 28 18 35 18 8 0
16 13 20 30 4 16 15 32 26 35 22 7 23 15 8 49 -9 19 -8 32 2 56 13 28 17 31
46 25 106 -19 308 -129 353 -191 17 -24 36 -44 41 -44 6 0 7 5 4 11 -14 21 26
49 71 49 23 0 49 3 58 6 27 10 7 24 -36 24 -27 0 -57 10 -94 32 -30 18 -54 35
-54 39 0 3 10 11 23 17 22 11 22 11 -4 11 -14 1 -34 10 -45 22 -41 46 -128 66
-153 35 -9 -11 -5 -15 25 -20 47 -9 39 -17 -9 -9 -42 6 -48 26 -15 44 37 20
86 12 131 -21 45 -33 73 -37 103 -15 27 20 44 19 86 -10 45 -30 74 -32 88 -5
12 22 41 26 69 9 11 -8 29 -9 47 -4 16 4 39 7 52 6 25 -3 29 11 7 29 -8 7 -15
23 -15 36 0 19 -6 24 -27 25 -16 1 -32 2 -38 4 -5 1 -15 3 -22 3 -6 1 -16 15
-22 32 -11 34 -12 34 -66 16 -45 -16 -80 -7 -102 24 -18 25 -34 25 -67 -1 -29
-23 -145 -71 -155 -64 -4 2 -26 -1 -49 -7 -39 -10 -47 -18 -43 -42 3 -17 -32
-46 -56 -46 -13 0 -38 8 -56 17 -18 9 -45 20 -62 24 l-30 8 30 -4 c17 -2 49
-9 73 -16 50 -15 76 -5 78 30 2 29 15 42 56 50 31 7 33 10 31 43 -2 31 3 40
32 63 28 21 33 30 26 44 -7 13 -6 24 5 40 20 28 11 38 -21 23 -14 -6 -38 -9
-53 -6 -24 5 -33 0 -56 -30 -22 -30 -33 -36 -59 -33 -28 2 -33 -2 -43 -33 -8
-23 -21 -38 -40 -46 -25 -10 -28 -17 -26 -47 2 -19 0 -37 -5 -40 -16 -10 -14
80 2 93 12 10 11 19 -10 61 -23 45 -27 48 -55 43 -25 -5 -31 -2 -41 20 -9 19
-20 26 -40 26 -15 0 -31 5 -35 11 -13 22 -23 -14 -19 -70 3 -38 10 -60 22 -68
20 -15 13 -16 -20 -4 -19 8 -23 15 -20 35 4 19 0 27 -13 32 -11 4 -38 26 -60
50 -36 38 -46 43 -72 38 -22 -5 -38 0 -60 16 -23 17 -39 21 -61 17 -17 -4 -42
-2 -56 3 -15 6 -26 6 -30 0 -4 -6 -1 -10 5 -10 6 0 18 -16 26 -35 8 -20 21
-38 29 -42 8 -3 15 -12 15 -20 0 -8 16 -21 36 -29 32 -13 35 -18 29 -44 -6
-25 -3 -32 17 -39 16 -7 18 -10 6 -10 -35 -2 -48 11 -48 45 0 25 -4 34 -16 34
-22 0 -94 75 -94 98 0 10 -11 25 -25 32 -14 8 -24 18 -22 24 5 15 -24 35 -52
36 -13 0 -36 11 -53 25 -24 20 -32 23 -48 13 -15 -10 -23 -9 -38 6 -11 9 -22
13 -25 9z m186 -210 c17 -18 36 -33 43 -33 7 0 15 -8 18 -17 3 -10 28 -31 56
-46 27 -16 50 -31 50 -34 0 -3 -16 4 -36 16 -19 12 -44 21 -55 21 -11 0 -18 4
-15 8 3 5 -22 35 -55 66 -35 34 -57 62 -52 69 5 8 8 7 11 -3 2 -8 18 -30 35
-47z m235 45 c15 -15 15 -28 1 -28 -5 0 -8 4 -4 9 3 6 -3 14 -12 20 -10 6 -13
11 -7 11 5 0 15 -5 22 -12z m293 -70 c7 -14 6 -16 -6 -12 -8 3 -13 10 -10 14
3 5 1 11 -5 15 -5 3 -10 12 -10 18 0 12 10 1 31 -35z m-164 -16 c17 -18 28
-32 23 -32 -4 0 -13 7 -21 16 -7 8 -21 13 -31 11 -10 -3 -15 -1 -12 4 3 6 1
16 -6 24 -23 28 15 9 47 -23z m519 11 c-2 -2 -10 -5 -18 -7 -7 -1 -20 -6 -28
-11 -10 -5 -8 -1 3 13 11 11 25 18 33 15 8 -3 13 -8 10 -10z m-300 -41 c-3 -2
-1 -13 5 -23 11 -21 2 -24 -21 -9 -11 7 -11 10 -2 10 10 0 10 5 2 20 -9 16 -8
18 5 14 9 -4 14 -9 11 -12z m221 -10 c-10 -10 -17 -23 -17 -29 0 -5 -14 -22
-31 -37 -17 -15 -29 -33 -26 -39 3 -8 -8 -12 -32 -13 -20 0 -30 1 -23 3 6 3
12 11 12 19 0 7 6 11 14 8 8 -3 33 18 62 54 27 33 51 58 53 56 2 -2 -3 -12
-12 -22z m-879 -75 c15 -3 22 -1 22 9 0 10 6 8 20 -6 16 -16 30 -19 73 -16
l52 5 -38 -14 c-27 -10 -45 -12 -57 -5 -24 13 -72 16 -90 5 -9 -5 -12 -4 -7 1
5 5 -7 14 -25 20 -19 7 -25 13 -15 13 12 1 16 5 11 14 -4 6 1 5 12 -4 10 -9
29 -19 42 -22z m-119 -1 c-19 -6 -35 -8 -37 -4 -2 4 -11 5 -20 2 -9 -3 -7 1 6
8 13 8 37 12 54 10 l32 -5 -35 -11z m1275 -10 c-4 -10 3 -16 23 -19 l28 -4
-30 0 c-89 -2 -95 -3 -95 -19 0 -14 -2 -14 -16 -3 -9 8 -29 13 -43 12 l-26 -2
25 8 c14 5 46 9 71 10 32 1 49 6 53 16 3 8 8 15 10 15 3 0 3 -6 0 -14z m-664
-18 c0 -5 -11 -9 -25 -9 -14 -1 -29 -3 -35 -4 -5 -1 -17 -3 -25 -4 -8 0 -23
-9 -33 -19 -12 -12 -25 -16 -38 -12 -15 6 -8 11 34 26 28 10 52 21 52 24 0 3
16 5 35 5 19 0 35 -3 35 -7z m50 3 c3 -1 -2 -5 -10 -10 -15 -10 -30 -6 -30 9
0 4 8 7 18 5 9 -2 19 -4 22 -4z m45 -1 c18 -8 17 -9 -7 -9 -16 -1 -28 4 -28 9
0 12 8 12 35 0z m720 -9 c-5 -9 53 -31 85 -31 8 0 22 -5 30 -11 12 -8 10 -9
-7 -4 -15 4 -23 2 -23 -6 0 -9 -5 -8 -17 3 -17 14 -88 38 -113 38 -8 0 -10 -8
-7 -22 6 -22 6 -22 -13 2 l-19 25 37 6 c20 3 41 7 45 8 5 0 6 -3 2 -8z m-1005
-51 c-8 -5 -17 -7 -19 -4 -3 3 1 9 9 14 8 5 17 7 19 4 3 -3 -1 -9 -9 -14z
m-70 -45 c-7 -9 -15 -13 -19 -10 -3 3 1 10 9 15 21 14 24 12 10 -5z m780 -15
c8 -5 11 -10 5 -10 -5 0 -17 5 -25 10 -8 5 -10 10 -5 10 6 0 17 -5 25 -10z
m-350 -38 c0 -10 -7 -19 -14 -19 -11 0 -13 5 -5 19 12 23 19 23 19 0z"/>
<path d="M2564 819 l-32 -31 -21 21 c-29 29 -36 27 -68 -16 -37 -50 -41 -53
-75 -41 -35 12 -63 -8 -73 -53 -4 -16 -11 -29 -16 -29 -6 0 -8 4 -5 8 2 4 0
14 -5 22 -8 13 -11 12 -20 -2 -5 -10 -17 -18 -24 -18 -8 0 -15 -9 -15 -20 0
-12 -11 -32 -25 -46 -26 -26 -35 -61 -12 -48 9 6 9 4 2 -7 -9 -12 -11 -25 -6
-51 1 -9 87 29 131 58 44 31 75 30 106 -1 25 -25 40 -33 29 -15 -3 6 0 13 8
16 9 3 21 18 27 34 12 28 24 36 71 45 29 6 32 10 33 42 1 23 8 30 36 39 21 7
40 22 48 38 7 14 22 31 33 36 28 16 23 27 -13 33 -18 3 -44 8 -58 12 -20 5
-32 -1 -56 -26z m29 -42 c4 -10 -2 -13 -21 -9 -24 5 -25 6 -7 13 11 4 21 8 21
8 1 1 4 -5 7 -12z m-68 -17 c-3 -5 -12 -10 -18 -10 -7 0 -6 4 3 10 19 12 23
12 15 0z m-49 -26 c-9 -8 -14 -20 -11 -25 4 -5 -1 -6 -10 -3 -19 8 -88 -44
-81 -61 3 -8 -6 -15 -22 -18 -15 -3 -28 -4 -30 -3 -6 6 11 36 17 31 4 -2 25
11 47 30 21 19 47 37 57 41 9 3 17 10 17 15 0 5 7 9 16 9 14 0 14 -1 0 -16z
m-196 -95 c0 -25 -52 -79 -77 -79 -11 0 -5 7 17 18 24 11 38 27 45 50 11 37
15 40 15 11z"/>
<path d="M1753 406 c-17 -6 -37 -20 -44 -33 -7 -12 -22 -29 -34 -37 -19 -13
-26 -13 -49 -1 -25 13 -28 12 -66 -29 -22 -24 -54 -47 -72 -52 -17 -5 -33 -15
-35 -21 -5 -15 65 -93 83 -93 15 0 29 43 19 59 -3 7 2 11 14 11 11 0 22 9 26
20 6 20 81 80 126 100 13 6 29 21 34 33 7 16 20 23 48 25 22 2 37 8 35 14 -5
14 -44 16 -85 4z"/>
<path d="M1945 380 c-3 -5 10 -20 29 -32 21 -14 38 -34 41 -50 5 -19 13 -28
26 -28 10 0 26 -11 35 -25 9 -14 20 -22 26 -19 5 3 20 -2 33 -10 22 -15 25
-15 25 -1 0 8 9 24 20 35 20 20 20 20 -21 41 -23 11 -44 18 -47 15 -3 -4 -16
3 -28 15 -12 12 -28 19 -36 17 -7 -3 -19 3 -28 12 -21 23 -68 42 -75 30z"/>
<path d="M2342 204 c-24 -18 -5 -37 21 -22 12 7 38 18 57 24 l35 11 -49 -1
c-27 -1 -55 -6 -64 -12z"/>
</g>
</svg>
